<svg width="250" height="86" viewBox="0 0 250 86" fill="none" xmlns="http://www.w3.org/2000/svg">
<mask id="path-1-inside-1_980_138" fill="white">
<path d="M0 0H250V85.2863H0V0Z"/>
</mask>
<path d="M250 83.2863H0V87.2863H250V83.2863Z" fill="#BEBBD5" mask="url(#path-1-inside-1_980_138)"/>
<path fill-rule="evenodd" clip-rule="evenodd" d="M108.5 10H88V12H91.5C93.5 12 95 13.8 95 17V43.5L101.5 41.748V17C101.5 15.5 102.2 12.4 105 12H108.5V10ZM95 46.2679V59C94.9924 59.145 94.9854 59.2925 94.9784 59.4424C94.8315 62.5671 94.6336 66.7748 87 72.5C88.2 75.7 88.1667 75.5 88 75C92.5 73.1667 101.5 69 101.5 59V44L95 46.2679Z" fill="#D9D9D9"/>
<path fill-rule="evenodd" clip-rule="evenodd" d="M129 13C132.167 12.3333 138.4 12.6672 140 21.4672H142L141 11.4672C130.667 8.63386 111.2 7.9672 116 27.9672C117.158 30.9943 120.106 33.3632 123.5 35.3822L132.5 32.8431L132.378 32.7817C130.724 31.9521 128.924 31.0497 127 30C120.5 26.4545 118 16 129 13ZM135.267 34.2507L125.686 36.6113C127.01 37.3203 128.358 37.9889 129.657 38.6337C131.633 39.6143 133.498 40.5396 135 41.4672C141.5 45 137 56 129.5 57C129.098 56.9426 128.623 56.9111 128.096 56.8761C124.031 56.6066 116.828 56.1289 115.5 41.9672H113V46V48.5L113 50L113.5 52L114 54L114.5 55.5L116 57C121.5 62 142.5 64.5 144 47.4672C144.649 40.0949 141.281 37.399 135.267 34.2507Z" fill="#D9D9D9"/>
<path d="M63.5 72C61.1 68 56.1667 65.6667 54 65C67 56 129.5 28 191 27C114 35 65 71 63.5 72Z" fill="#CE171F"/>
</svg>
